<svg width="17" height="17" viewBox="0 0 17 17" fill="none" xmlns="http://www.w3.org/2000/svg">
<path d="M6.12144 6.72242e-08C5.84342 8.6409e-06 5.57087 0.0772488 5.3342 0.223102C5.09753 0.368955 4.90605 0.577684 4.78113 0.826L4.19099 2H2.50059C1.83739 2 1.20136 2.26339 0.732405 2.73223C0.263454 3.20107 0 3.83696 0 4.5V12.5C0 13.163 0.263454 13.7989 0.732405 14.2678C1.20136 14.7366 1.83739 15 2.50059 15H7.59779C7.43422 14.6804 7.30255 14.3454 7.2047 14H2.50159C2.10367 14 1.72205 13.842 1.44068 13.5607C1.15931 13.2794 1.00124 12.8978 1.00124 12.5V4.5C1.00124 4.10218 1.15931 3.72064 1.44068 3.43934C1.72205 3.15804 2.10367 3 2.50159 3H4.50006C4.59269 2.99981 4.68345 2.97391 4.76222 2.92517C4.84098 2.87644 4.90467 2.8068 4.94616 2.724L5.67434 1.275C5.71605 1.19224 5.77995 1.1227 5.8589 1.07414C5.93785 1.02558 6.02875 0.99991 6.12144 1H9.88633C9.9793 0.999818 10.0705 1.02555 10.1496 1.0743C10.2288 1.12305 10.2928 1.1929 10.3344 1.276L11.0576 2.723C11.0992 2.80595 11.163 2.87569 11.242 2.92444C11.3209 2.97318 11.4119 2.999 11.5047 2.999H13.5042C13.9021 2.999 14.2837 3.15704 14.5651 3.43834C14.8465 3.71964 15.0045 4.10118 15.0045 4.499V7.602C15.361 7.78454 15.6964 8.00552 16.0048 8.261V4.499C16.0048 3.83596 15.7413 3.20007 15.2724 2.73123C14.8034 2.26239 14.1674 1.999 13.5042 1.999H11.8138L11.2286 0.829C11.104 0.57982 10.9124 0.370276 10.6753 0.223853C10.4382 0.0774303 10.165 -8.33298e-05 9.88633 6.72242e-08H6.12144ZM7.99788 4C8.89104 4.00004 9.75852 4.29871 10.4623 4.84849C11.1661 5.39827 11.6658 6.16757 11.8818 7.034C11.5492 7.0712 11.2208 7.13881 10.9006 7.236C10.7662 6.72547 10.4994 6.25942 10.1273 5.88489C9.75517 5.51035 9.2908 5.24059 8.78105 5.10282C8.27131 4.96506 7.73424 4.96416 7.22404 5.10023C6.71384 5.2363 6.24857 5.50452 5.87519 5.87781C5.50181 6.2511 5.23353 6.71626 5.09743 7.22634C4.96133 7.73642 4.96223 8.27337 5.10003 8.78299C5.23782 9.29261 5.50765 9.75687 5.88227 10.1289C6.25689 10.501 6.72305 10.7676 7.2337 10.902C7.13656 11.2218 7.06893 11.5499 7.03166 11.882C6.08655 11.6432 5.26107 11.0679 4.71012 10.2639C4.15916 9.45986 3.9206 8.48249 4.03918 7.51514C4.15777 6.54779 4.62535 5.65695 5.3542 5.00976C6.08305 4.36258 7.02307 4.00353 7.99788 4ZM17 12.5C17 13.6935 16.5258 14.8381 15.6817 15.682C14.8376 16.5259 13.6927 17 12.4989 17C11.3052 17 10.1603 16.5259 9.31621 15.682C8.4721 14.8381 7.99788 13.6935 7.99788 12.5C7.99788 11.3065 8.4721 10.1619 9.31621 9.31802C10.1603 8.47411 11.3052 8 12.4989 8C13.6927 8 14.8376 8.47411 15.6817 9.31802C16.5258 10.1619 17 11.3065 17 12.5ZM12.9991 10.5C12.9991 10.3674 12.9464 10.2402 12.8526 10.1464C12.7588 10.0527 12.6316 10 12.4989 10C12.3663 10 12.2391 10.0527 12.1453 10.1464C12.0515 10.2402 11.9988 10.3674 11.9988 10.5V12H10.4985C10.3658 12 10.2386 12.0527 10.1448 12.1464C10.051 12.2402 9.99835 12.3674 9.99835 12.5C9.99835 12.6326 10.051 12.7598 10.1448 12.8536C10.2386 12.9473 10.3658 13 10.4985 13H11.9988V14.5C11.9988 14.6326 12.0515 14.7598 12.1453 14.8536C12.2391 14.9473 12.3663 15 12.4989 15C12.6316 15 12.7588 14.9473 12.8526 14.8536C12.9464 14.7598 12.9991 14.6326 12.9991 14.5V13H14.4994C14.6321 13 14.7593 12.9473 14.8531 12.8536C14.9468 12.7598 14.9995 12.6326 14.9995 12.5C14.9995 12.3674 14.9468 12.2402 14.8531 12.1464C14.7593 12.0527 14.6321 12 14.4994 12H12.9991V10.5Z" fill="#3F80FF"/>
</svg>
