<svg width="21" height="20" viewBox="0 0 21 20" fill="none" xmlns="http://www.w3.org/2000/svg">
<path d="M6.1875 0L5.5 0.6875V2.78712C5.95694 2.73662 6.41806 2.73662 6.875 2.78712V1.375H19.25V8.25H16.9029L15.125 10.0279V8.25H12.3379C12.3884 8.70694 12.3884 9.16806 12.3379 9.625H13.75V11.6875L14.9242 12.1742L17.4721 9.625H19.9375L20.625 8.9375V0.6875L19.9375 0H6.1875Z" fill="#001640"/>
<path fill-rule="evenodd" clip-rule="evenodd" d="M8.82337 12.9649C9.69043 12.3973 10.3511 11.5649 10.7071 10.5917C11.0631 9.61841 11.0955 8.55623 10.7993 7.56312C10.5031 6.57002 9.89433 5.69904 9.0634 5.07974C8.23247 4.46044 7.22383 4.12592 6.1875 4.12592C5.15117 4.12592 4.14253 4.46044 3.3116 5.07974C2.48067 5.69904 1.87185 6.57002 1.5757 7.56312C1.27954 8.55623 1.31187 9.61841 1.66789 10.5917C2.0239 11.5649 2.68457 12.3973 3.55163 12.9649C2.48973 13.4651 1.59198 14.2569 0.963124 15.248C0.334265 16.2392 0.000231752 17.3887 0 18.5625L0 19.25H1.375V18.5625C1.4172 17.3143 1.94272 16.1313 2.84063 15.2633C3.73854 14.3952 4.93859 13.91 6.1875 13.91C7.43641 13.91 8.63646 14.3952 9.53437 15.2633C10.4323 16.1313 10.9578 17.3143 11 18.5625V19.25H12.375V18.5625C12.3748 17.3887 12.0407 16.2392 11.4119 15.248C10.783 14.2569 9.88527 13.4651 8.82337 12.9649ZM6.1875 12.375C5.27582 12.375 4.40148 12.0128 3.75682 11.3682C3.11216 10.7235 2.75 9.84917 2.75 8.93749C2.75 8.02581 3.11216 7.15147 3.75682 6.50681C4.40148 5.86216 5.27582 5.49999 6.1875 5.49999C7.09918 5.49999 7.97352 5.86216 8.61818 6.50681C9.26284 7.15147 9.625 8.02581 9.625 8.93749C9.625 9.84917 9.26284 10.7235 8.61818 11.3682C7.97352 12.0128 7.09918 12.375 6.1875 12.375Z" fill="#001640"/>
</svg>
